<?xml version="1.0" standalone="no"?>
<!DOCTYPE svg PUBLIC "-//W3C//DTD SVG 20010904//EN"
 "http://www.w3.org/TR/2001/REC-SVG-20010904/DTD/svg10.dtd">
<svg version="1.0" xmlns="http://www.w3.org/2000/svg"
 width="208.000000pt" height="208.000000pt" viewBox="0 0 208.000000 208.000000"
 preserveAspectRatio="xMidYMid meet">
<metadata>
Created by potrace 1.14, written by Peter Selinger 2001-2017
</metadata>
<g transform="translate(0.000000,208.000000) scale(0.100000,-0.100000)"
fill="#000000" stroke="none">
<path d="M74 1711 c-2 -2 -4 -310 -4 -683 l0 -678 960 0 c907 0 960 1 961 18
0 9 1 315 2 679 1 436 -1 663 -8 664 -28 4 -1907 3 -1911 0z m1881 -680 l0
-646 -925 0 -925 0 1 645 c1 355 2 646 3 646 0 1 416 1 924 1 l922 0 0 -646z"/>
<path d="M391 1471 c-12 -8 -15 -85 -18 -449 l-4 -440 28 -6 c54 -11 123 -10
135 2 14 14 15 40 17 307 l1 210 31 -55 c79 -140 144 -242 160 -251 32 -17 63
6 98 72 18 35 55 102 82 149 l49 85 1 -205 c3 -283 3 -293 12 -308 9 -13 134
-17 154 -4 10 6 12 106 10 446 -2 370 -5 439 -17 446 -20 13 -107 13 -130 0
-10 -5 -40 -47 -67 -92 -26 -45 -57 -98 -69 -118 -11 -19 -40 -71 -64 -115
-23 -44 -43 -81 -44 -82 -1 -2 -26 46 -56 105 -87 174 -163 300 -185 306 -31
9 -109 7 -124 -3z"/>
<path d="M1329 1470 c-14 -8 -17 -28 -17 -117 0 -60 -1 -256 -2 -437 -2 -256
0 -330 10 -336 7 -4 95 -8 196 -9 221 0 216 -3 212 103 l-3 71 -120 5 -120 5
3 175 c5 356 2 523 -9 537 -13 15 -125 18 -150 3z"/>
</g>
</svg>
